<mxfile host="app.diagrams.net" modified="2023-10-26T03:09:15.062Z" agent="Mozilla/5.0 (Macintosh; Intel Mac OS X 10_15_7) AppleWebKit/537.36 (KHTML, like Gecko) Chrome/118.0.0.0 Safari/537.36" version="21.3.8" etag="Wih9OWW3Fs28X3gX9BR8" type="github">
  <diagram name="第 1 页" id="mU16fAHhEEMBqtx_NLf8">
    <mxGraphModel>
      <root>
        <mxCell id="0" />
        <mxCell id="1" parent="0" />
      </root>
    </mxGraphModel>
  </diagram>
</mxfile>
